<mxfile host="app.diagrams.net" modified="2023-10-08T10:34:52.927Z" agent="Mozilla/5.0 (Macintosh; Intel Mac OS X 10_15_7) AppleWebKit/537.36 (KHTML, like Gecko) Chrome/117.0.0.0 Safari/537.36" version="22.0.4" etag="rnCP2ifd5DbTZIkebUxX" type="github">
  <diagram name="Sayfa -1" id="hXq_7F7mK8UXHW-yVfDf">
    <mxGraphModel>
      <root>
        <mxCell id="0" />
        <mxCell id="1" parent="0" />
      </root>
    </mxGraphModel>
  </diagram>
</mxfile>
